<svg width="32" height="32" viewBox="0 0 32 32" fill="none" xmlns="http://www.w3.org/2000/svg">
<path fill-rule="evenodd" clip-rule="evenodd" d="M9.99051 10.7029C9.58926 11.8636 9.30026 13.0486 9.20527 14.2769C9.08727 15.8006 9.14126 17.3136 9.46251 18.8124C9.47126 18.8536 9.48977 18.8924 9.50352 18.9324C9.60427 18.9326 9.70702 18.9201 9.80552 18.9354C10.6378 19.0661 11.4693 19.2016 12.3008 19.3364C13.1603 19.4756 14.021 19.6094 14.879 19.7581C15.183 19.8106 15.5593 19.7479 15.682 20.1684C15.6855 20.1799 15.7205 20.1819 15.7408 20.1884L15.6993 17.6756L15.7415 11.6126L15.341 11.5439C14.686 11.4366 14.031 11.3279 13.3755 11.2236C12.5933 11.0994 11.8103 10.9786 11.0275 10.8574C10.6823 10.8036 10.3365 10.7544 9.99051 10.7029Z" fill="#439934"/>
<path fill-rule="evenodd" clip-rule="evenodd" d="M16.5677 27.5136C16.9902 27.1504 17.4275 26.8031 17.8325 26.4211C20.0117 24.3656 21.6057 21.9464 22.3907 19.0296C22.607 18.2269 22.7512 17.4111 22.7975 16.5816C22.83 16.0011 22.877 15.4154 22.836 14.8379C22.7267 13.3019 22.5047 11.7806 22.0542 10.3011L22.0295 10.2666C21.9857 10.3249 21.9227 10.3764 21.9005 10.4421C21.4607 11.7371 21.0242 13.0331 20.59 14.3299C19.2255 18.4049 17.8627 22.4809 16.496 26.5549C16.4692 26.6344 16.4 26.6996 16.3502 26.7714L16.5677 27.5136Z" fill="#45A538"/>
<path fill-rule="evenodd" clip-rule="evenodd" d="M9.9905 10.7031C10.3365 10.7546 10.6825 10.8038 11.0277 10.8571C11.8105 10.9783 12.5935 11.0991 13.3757 11.2233C14.0312 11.3276 14.6862 11.4363 15.3412 11.5436L15.7417 11.6123L15.7447 11.3511C15.758 11.1363 15.7807 10.9218 15.7832 10.7071C15.8005 9.33758 15.8112 7.96808 15.8282 6.59858C15.8387 5.74133 15.8545 4.88433 15.872 4.02733C15.8827 3.49483 15.8942 2.96208 15.9182 2.43033C15.9312 2.14458 15.9772 1.86033 15.996 1.57458C16.0065 1.41033 15.992 1.24483 15.9887 1.07983C15.7845 1.47558 15.5847 1.87433 15.3747 2.26708C15.043 2.88808 14.5145 3.34558 14.0387 3.84483C12.158 5.81783 10.8227 8.11183 9.9905 10.7031Z" fill="#46A037"/>
<path fill-rule="evenodd" clip-rule="evenodd" d="M15.741 20.1882C15.7208 20.1817 15.6855 20.1797 15.6823 20.1682C15.5595 19.7477 15.1833 19.8104 14.8793 19.7579C14.0213 19.6094 13.1605 19.4754 12.301 19.3362C11.4695 19.2014 10.638 19.0659 9.80577 18.9352C9.70727 18.9197 9.60452 18.9324 9.50377 18.9322C9.65927 19.4872 9.78177 20.0542 9.97902 20.5939C10.203 21.2062 10.474 21.8037 10.7618 22.3894C11.1925 23.2631 11.7257 24.0824 12.35 24.8302C12.8298 25.4072 13.3645 25.9404 13.9005 26.4672C14.1968 26.7584 14.546 26.9957 14.871 27.2574L14.9553 27.1999L15.2588 26.9404L15.5728 26.2522C15.7872 25.4493 15.9043 24.6235 15.9213 23.7927L15.9155 23.6524L15.8728 23.0459C15.8585 22.8389 15.8395 22.6322 15.8308 22.4247C15.7985 21.6792 15.7705 20.9337 15.741 20.1882Z" fill="#409433"/>
<path fill-rule="evenodd" clip-rule="evenodd" d="M15.741 20.1882C15.7705 20.9337 15.7985 21.6792 15.8302 22.4249C15.839 22.6324 15.858 22.8392 15.8722 23.0462L16.0635 23.1184C16.4882 21.8679 16.9132 20.6307 17.329 19.3902C18.0165 17.3379 18.6957 15.2824 19.3822 13.2297C19.9367 11.5728 20.495 9.91719 21.0572 8.26291C21.0835 8.18541 21.159 8.12491 21.2115 8.05641L19.9875 5.80591C19.9455 5.87891 19.89 5.94716 19.8635 6.02566C19.2966 7.70119 18.7326 9.37769 18.1715 11.0552C17.4425 13.2377 16.718 15.4219 15.9895 17.6047C15.9605 17.6919 15.9125 17.7724 15.8667 17.8702L15.6992 17.6752L15.741 20.1882Z" fill="#4FAA41"/>
<path fill-rule="evenodd" clip-rule="evenodd" d="M21.2112 8.05664C21.1587 8.12514 21.0835 8.18564 21.057 8.26314C20.4948 9.91742 19.9365 11.573 19.382 13.2299C18.6955 15.2826 18.0162 17.3381 17.3287 19.3904C16.9132 20.6306 16.4882 21.8681 16.0632 23.1186L15.872 23.0464L15.9147 23.6529L15.9535 23.7926C16.02 24.4566 16.076 25.1221 16.157 25.7846C16.1977 26.1166 16.2842 26.4426 16.35 26.7714C16.3995 26.6996 16.469 26.6344 16.4957 26.5549C17.8625 22.4806 19.2252 18.4049 20.5897 14.3299C21.0238 13.0331 21.4607 11.7371 21.9002 10.4421C21.9225 10.3764 21.9852 10.3249 22.0292 10.2666L21.2112 8.05664Z" fill="#4AA73C"/>
<path fill-rule="evenodd" clip-rule="evenodd" d="M15.6995 17.6754L15.867 17.8704C15.9128 17.7727 15.9608 17.6919 15.9898 17.6049C16.718 15.4222 17.4428 13.2379 18.1718 11.0554C18.7329 9.37797 19.2969 7.70147 19.8638 6.02594C19.89 5.94744 19.9455 5.87894 19.9878 5.80619L18.474 3.81494C18.4263 3.87869 18.3583 3.93544 18.3335 4.00719C17.9133 5.23744 17.4968 6.46919 17.0828 7.70169C16.696 8.85269 16.315 10.0054 15.9238 11.1549C15.8975 11.2319 15.8063 11.2864 15.7453 11.3514L15.7423 11.6127C15.7278 13.6332 15.7135 15.6544 15.6995 17.6754Z" fill="#57AE47"/>
<path fill-rule="evenodd" clip-rule="evenodd" d="M15.7448 11.3509C15.8058 11.2859 15.897 11.2314 15.9233 11.1544C16.3145 10.0049 16.6955 8.85218 17.0823 7.70118C17.4963 6.46868 17.9128 5.23718 18.333 4.00668C18.3578 3.93493 18.4258 3.87818 18.4735 3.81443C17.9813 3.33243 17.5043 2.83318 16.9923 2.37343C16.537 1.96493 16.171 1.52693 16.1543 0.88143C16.1535 0.85468 16.1395 0.82793 16.118 0.75293L15.9883 1.07943C15.9915 1.24468 16.0063 1.40993 15.9955 1.57418C15.9768 1.85993 15.9308 2.14418 15.9178 2.42993C15.8938 2.96168 15.8823 3.49443 15.8715 4.02693C15.8543 4.88393 15.8385 5.74093 15.8278 6.59818C15.811 7.96768 15.8 9.33718 15.7828 10.7067C15.7808 10.9219 15.7583 11.1362 15.7448 11.3509Z" fill="#60B24F"/>
<path fill-rule="evenodd" clip-rule="evenodd" d="M16.3505 26.7713C16.2847 26.4425 16.1982 26.1163 16.1575 25.7845C16.0762 25.1223 16.0205 24.4565 15.954 23.7925L15.9375 23.79L15.921 23.7928C15.904 24.6236 15.787 25.4494 15.5725 26.2523C15.6165 26.3103 15.6787 26.362 15.702 26.4275C15.8837 26.94 16.055 27.4565 16.2377 27.969C16.2627 28.039 16.3322 28.0935 16.3812 28.155L16.568 27.5135L16.3505 26.7713Z" fill="#A9AA88"/>
<path fill-rule="evenodd" clip-rule="evenodd" d="M16.381 28.1552C16.332 28.0937 16.2623 28.0392 16.2375 27.9692C16.0548 27.4567 15.8833 26.9404 15.7018 26.4277C15.6785 26.3622 15.6165 26.3104 15.5723 26.2524L15.2585 26.9409C15.3205 27.0289 15.406 27.1082 15.4405 27.2062L16.0415 28.9709C16.0663 29.0417 16.1508 29.0917 16.2073 29.1514L16.381 28.1552Z" fill="#B6B598"/>
<path fill-rule="evenodd" clip-rule="evenodd" d="M16.2072 29.1512C16.1505 29.0917 16.0662 29.0414 16.0415 28.9707L15.4405 27.2059C15.4062 27.1082 15.3205 27.0287 15.2585 26.9407L14.9547 27.1999C15.1015 27.3449 15.183 27.5124 15.134 27.7242L15.2262 28.0262C15.2682 28.0779 15.329 28.1229 15.3497 28.1822C15.5595 28.7829 15.7597 29.3869 15.971 29.9877C15.9977 30.0639 16.072 30.1237 16.1245 30.1907C16.1517 29.8439 16.1795 29.4979 16.2072 29.1512Z" fill="#C2C1A7"/>
<path fill-rule="evenodd" clip-rule="evenodd" d="M16.1242 30.1909C16.072 30.1236 15.9977 30.0639 15.9707 29.9879C15.7595 29.3874 15.5592 28.7834 15.3495 28.1824C15.3287 28.1234 15.2682 28.0781 15.226 28.0264L15.3532 29.4126C15.3872 29.4519 15.4365 29.4861 15.4527 29.5319C15.5965 29.9354 15.732 30.3419 15.8762 30.7454C15.906 30.8286 15.963 30.9021 16.0075 30.9799C16.047 30.9281 16.1177 30.8781 16.121 30.8241C16.1337 30.6139 16.125 30.4021 16.1242 30.1909Z" fill="#CECDB7"/>
<path fill-rule="evenodd" clip-rule="evenodd" d="M16.0078 30.9798C15.9633 30.9018 15.9063 30.8283 15.8765 30.7453C15.732 30.3421 15.5968 29.9356 15.453 29.5318C15.4368 29.4861 15.3873 29.4521 15.3535 29.4126L15.3505 30.3226L15.655 31.1036L16.0078 30.9798Z" fill="#DBDAC7"/>
<path fill-rule="evenodd" clip-rule="evenodd" d="M15.655 31.1038L15.3505 30.3228L15.2877 31.2468L15.655 31.1038Z" fill="#EBE9DC"/>
<path fill-rule="evenodd" clip-rule="evenodd" d="M15.134 27.7244C15.183 27.5127 15.1017 27.3449 14.9547 27.2002L14.8705 27.2577L15.134 27.7244Z" fill="#CECDB7"/>
<path fill-rule="evenodd" clip-rule="evenodd" d="M15.921 23.7931L15.9375 23.7903L15.954 23.7928L15.9153 23.6531L15.921 23.7931Z" fill="#4FAA41"/>
</svg>
