<svg width="32" height="32" viewBox="0 0 32 32" fill="none" xmlns="http://www.w3.org/2000/svg">
<g clip-path="url(#clip0_7_52)">
<path d="M16 32C24.8366 32 32 24.8366 32 16C32 7.16344 24.8366 0 16 0C7.16344 0 0 7.16344 0 16C0 24.8366 7.16344 32 16 32Z" fill="#282828"/>
<path d="M26.5793 28.0036L12.2918 9.6001H9.60001V22.3948H11.7535V12.3348L24.8885 29.3058C25.4803 28.9097 26.0452 28.4747 26.5793 28.0036Z" fill="url(#paint0_linear_7_52)"/>
<path d="M20.4445 9.6001H22.5777V22.4001H20.4445V9.6001Z" fill="url(#paint1_linear_7_52)"/>
</g>
<defs>
<linearGradient id="paint0_linear_7_52" x1="19.3778" y1="20.7112" x2="25.6889" y2="28.5334" gradientUnits="userSpaceOnUse">
<stop stop-color="white"/>
<stop offset="1" stop-color="white" stop-opacity="0"/>
</linearGradient>
<linearGradient id="paint1_linear_7_52" x1="21.5111" y1="9.60008" x2="21.4753" y2="19.0001" gradientUnits="userSpaceOnUse">
<stop stop-color="white"/>
<stop offset="1" stop-color="white" stop-opacity="0"/>
</linearGradient>
<clipPath id="clip0_7_52">
<rect width="32" height="32" fill="white"/>
</clipPath>
</defs>
</svg>
