<svg width="32" height="32" viewBox="0 0 32 32" fill="none" xmlns="http://www.w3.org/2000/svg">
<g clip-path="url(#clip0_7_85)">
<path d="M23.4522 23.0281C23.6485 21.3949 23.5898 21.1551 24.8062 21.4199L25.115 21.4469C26.0505 21.4894 27.2743 21.2964 27.9932 20.9624C29.541 20.2441 30.4585 19.0454 28.9328 19.3601C25.4518 20.0784 25.2125 18.8996 25.2125 18.8996C28.8883 13.4459 30.4247 6.52262 29.0982 4.82787C25.4807 0.205616 19.219 2.39137 19.1143 2.44787L19.0807 2.45412C18.393 2.31137 17.6232 2.22612 16.7585 2.21212C15.1832 2.18612 13.988 2.62512 13.0812 3.31262C13.0812 3.31262 1.9105 -1.28963 2.43025 9.10037C2.54075 11.3106 5.59825 25.8249 9.24525 21.4409C10.5782 19.8379 11.8662 18.4824 11.8662 18.4824C12.5057 18.9071 13.2717 19.1241 14.0747 19.0461L14.137 18.9931C14.1175 19.1921 14.126 19.3869 14.1617 19.6174C13.2225 20.6671 13.4985 20.8514 11.6202 21.2379C9.71975 21.6294 10.8362 22.3266 11.565 22.5089C12.4487 22.7299 14.493 23.0429 15.8745 21.1094L15.8195 21.3299C16.188 21.6249 16.1632 23.4491 16.2152 24.7524C16.2675 26.0559 16.3547 27.2721 16.6205 27.9894C16.8862 28.7064 17.1997 30.5534 19.6682 30.0244C21.7312 29.5834 23.3085 28.9471 23.4522 23.0281Z" fill="#282828"/>
<path d="M18.8645 31.314C17.7728 31.314 17.0618 30.8917 16.63 30.484C15.9783 29.869 15.7198 29.0767 15.5653 28.6035L15.4985 28.406C15.1875 27.5665 15.082 26.3577 15.0195 24.8012C15.01 24.5675 15.0035 24.3267 14.9963 24.0715C14.991 23.8847 14.9845 23.6505 14.975 23.4055C14.5817 23.593 14.1642 23.7249 13.7345 23.7975C12.9648 23.929 12.1373 23.8865 11.2745 23.6707C10.6658 23.5185 10.0333 23.203 9.67275 22.7157C8.622 23.636 7.61975 23.5112 7.07375 23.329C6.1105 23.0077 5.2485 22.105 4.43825 20.5697C3.861 19.476 3.30275 18.051 2.77875 16.334C1.86625 13.344 1.2865 10.1947 1.235 9.1607C1.073 5.92445 1.94425 3.60995 3.824 2.2822C6.78925 0.187703 11.282 1.41945 12.92 1.9787C14.0205 1.31545 15.3153 0.992703 16.7783 1.01595C17.564 1.0287 18.3123 1.0977 19.0073 1.2217C19.7323 0.993703 21.1643 0.666453 22.8035 0.686953C25.8238 0.722953 28.3265 1.89995 30.0408 4.0907C31.2643 5.6537 30.6593 8.93595 30.19 10.7535C29.5295 13.31 28.3723 16.029 26.9508 18.396C27.3368 18.3987 27.896 18.3525 28.691 18.1882C30.2595 17.8645 30.7183 18.7055 30.8428 19.082C31.3415 20.5925 29.1735 21.734 28.4973 22.048C27.6308 22.4502 26.218 22.6952 25.061 22.6422L25.0105 22.639L24.7065 22.6122L24.6765 22.8657L24.6475 23.1135C24.5698 26.1132 24.1413 28.013 23.2595 29.2682C22.3353 30.5842 21.0508 30.953 19.9193 31.1955C19.5333 31.278 19.1825 31.314 18.8645 31.314ZM16.567 20.3962C17.2718 20.9602 17.3335 22.0215 17.3888 24.0047C17.3958 24.2522 17.4023 24.4865 17.411 24.7052C17.4375 25.3677 17.4998 26.919 17.7428 27.5745C17.777 27.6672 17.8078 27.7612 17.8403 27.861C18.111 28.69 18.2468 29.1057 19.4175 28.8555C20.4003 28.6447 20.9055 28.4557 21.301 27.8927C21.8758 27.0742 22.1973 25.4277 22.2563 22.999L23.452 23.028L22.2645 22.8855L22.2995 22.589C22.4133 21.6115 22.4953 20.9055 23.1485 20.4385C23.6728 20.064 24.27 20.1002 24.7458 20.186C24.223 19.791 24.0785 19.3277 24.04 19.1377L23.9403 18.6465L24.2205 18.2307C25.8348 15.8357 27.1658 12.8922 27.8728 10.1547C28.5993 7.34195 28.3778 5.8482 28.1563 5.5657C25.224 1.81895 20.1393 3.36595 19.6083 3.54145L19.5185 3.58995L19.0685 3.6737L18.838 3.62595C18.2025 3.49395 17.4965 3.42095 16.7398 3.4087C15.5508 3.3887 14.5915 3.6697 13.805 4.26645L13.2593 4.6802L12.626 4.41945C11.273 3.8662 7.299 2.75395 5.202 4.2392C4.038 5.0637 3.50775 6.6792 3.62575 9.04095C3.66475 9.8207 4.1945 12.7725 5.0685 15.6352C6.27625 19.5915 7.37375 20.9057 7.832 21.0585C7.912 21.0855 8.1195 20.9242 8.326 20.6762C9.18701 19.644 10.0786 18.6378 10.9995 17.6587L11.692 16.93L12.5293 17.4862C12.8668 17.7105 13.239 17.8377 13.6213 17.8617L15.618 16.1587L15.3288 19.1107C15.3223 19.177 15.319 19.2672 15.345 19.4347L15.432 19.9942L15.0545 20.4162L15.011 20.4652L16.108 20.9715L16.567 20.3962Z" fill="#282828"/>
<path d="M28.9328 19.3601C25.4515 20.0784 25.2122 18.8996 25.2122 18.8996C28.888 13.4456 30.4245 6.52211 29.0985 4.82786C25.481 0.205856 19.2188 2.39161 19.1143 2.44836L19.0805 2.45436C18.3927 2.31161 17.623 2.22661 16.7577 2.21261C15.1825 2.18686 13.9878 2.62561 13.081 3.31311C13.081 3.31311 1.91 -1.28889 2.4295 9.10086C2.54 11.3114 5.5975 25.8256 9.2445 21.4416C10.5775 19.8386 11.8652 18.4831 11.8652 18.4831C12.505 18.9079 13.2708 19.1249 14.0735 19.0469L14.136 18.9939C14.1165 19.1929 14.1255 19.3876 14.161 19.6181C13.2215 20.6679 13.4975 20.8521 11.6193 21.2386C9.71875 21.6301 10.8352 22.3274 11.5642 22.5096C12.4478 22.7306 14.4922 23.0436 15.8735 21.1101L15.8182 21.3306C16.1865 21.6256 16.445 23.2486 16.4018 24.7199C16.3583 26.1911 16.3292 27.2014 16.6195 27.9904C16.9095 28.7794 17.1985 30.5544 19.6675 30.0254C21.7305 29.5834 22.7995 28.4376 22.9485 26.5266C23.054 25.1679 23.2928 25.3689 23.308 24.1541L23.4998 23.5791C23.7208 21.7374 23.5347 21.1434 24.806 21.4196L25.1147 21.4466C26.0502 21.4891 27.2745 21.2961 27.9932 20.9621C29.5408 20.2444 30.4585 19.0454 28.9328 19.3601Z" fill="#336791"/>
<path d="M18.9892 30.5767C16.9312 30.5767 16.2792 28.9469 16.0125 28.2804C15.622 27.3037 15.5377 23.5132 15.6247 20.4047C15.626 20.3522 15.6377 20.3006 15.659 20.2527C15.6804 20.2048 15.711 20.1616 15.7491 20.1256C15.7872 20.0895 15.8321 20.0614 15.8811 20.0428C15.9301 20.0242 15.9823 20.0155 16.0347 20.0172C16.0871 20.0186 16.1387 20.0303 16.1865 20.0517C16.2343 20.073 16.2774 20.1036 16.3134 20.1417C16.3494 20.1797 16.3776 20.2245 16.3962 20.2735C16.4149 20.3224 16.4237 20.3745 16.4222 20.4269C16.322 24.0122 16.4642 27.2612 16.7532 27.9842C17.2042 29.1114 17.8882 30.0974 19.822 29.6832C21.6577 29.2894 22.3452 28.5934 22.6515 26.8182C22.8865 25.4559 23.3512 21.5804 23.4085 20.8157C23.4123 20.7634 23.4264 20.7124 23.45 20.6656C23.4736 20.6188 23.5061 20.5771 23.5459 20.5429C23.5856 20.5087 23.6316 20.4827 23.6814 20.4664C23.7312 20.45 23.7837 20.4437 23.836 20.4477C23.9414 20.4556 24.0394 20.5051 24.1084 20.5853C24.1774 20.6654 24.2118 20.7697 24.204 20.8752C24.1442 21.6714 23.6817 25.5394 23.4377 26.9539C23.0762 29.0507 22.1415 30.0017 19.9892 30.4632C19.6235 30.5414 19.2912 30.5764 18.9892 30.5767ZM7.83024 22.6164C7.65036 22.6158 7.47174 22.5862 7.30124 22.5289C5.96449 22.0829 4.69124 19.9059 3.51674 16.0577C2.62274 13.1284 2.05624 10.0709 2.00649 9.07715C1.85924 6.13115 2.61774 4.0469 4.26149 2.88265C7.51324 0.578652 12.9835 2.77265 13.2147 2.86715C13.3127 2.90717 13.3908 2.98446 13.4317 3.08202C13.4727 3.17959 13.4733 3.28944 13.4332 3.3874C13.3932 3.48537 13.3159 3.56342 13.2184 3.6044C13.1208 3.64538 13.011 3.64592 12.913 3.6059C12.8602 3.5844 7.61474 1.4829 4.72099 3.53465C3.31549 4.53115 2.67024 6.38265 2.80299 9.0374C2.84474 9.87465 3.37399 12.8587 4.27949 15.8247C5.32799 19.2602 6.52124 21.4279 7.55349 21.7722C7.71549 21.8262 8.20849 21.9904 8.91324 21.1429C9.7351 20.1559 10.5878 19.1949 11.47 18.2614C11.5438 18.1878 11.6435 18.146 11.7478 18.1449C11.852 18.1439 11.9526 18.1837 12.0278 18.2558C12.1031 18.328 12.1472 18.4267 12.1506 18.5309C12.1539 18.6351 12.1164 18.7365 12.046 18.8134C12.034 18.8259 10.8342 20.0802 9.52674 21.6532C8.90749 22.3979 8.31399 22.6164 7.83024 22.6164ZM25.1875 19.2552C25.1152 19.2551 25.0442 19.2353 24.9823 19.198C24.9203 19.1607 24.8697 19.1073 24.8357 19.0434C24.8018 18.9796 24.7858 18.9077 24.7896 18.8355C24.7933 18.7632 24.8166 18.6934 24.857 18.6334C28.5727 13.1197 29.877 6.4574 28.76 5.0299C27.354 3.2334 25.3687 2.29515 22.859 2.2409C21.0007 2.2009 19.5237 2.6754 19.2822 2.75815L19.2215 2.7829C18.9787 2.85915 18.7925 2.72615 18.7222 2.57065C18.6822 2.48156 18.6761 2.38089 18.7052 2.28763C18.7342 2.19437 18.7964 2.11497 18.88 2.0644C18.8915 2.05765 18.928 2.04215 18.9872 2.0204C19.3975 1.87015 20.897 1.42015 22.7542 1.4414C25.5312 1.4709 27.8252 2.54165 29.3877 4.5384C30.127 5.48315 30.1287 7.65965 29.3925 10.5102C28.642 13.4164 27.2297 16.5397 25.5182 19.0794C25.4417 19.1937 25.3157 19.2552 25.1875 19.2552ZM25.3775 21.8077C24.743 21.8077 24.1742 21.7182 23.8337 21.5142C23.4837 21.3044 23.417 21.0194 23.4082 20.8682C23.3127 19.1907 24.2382 18.8987 24.7102 18.7654C24.6445 18.6659 24.551 18.5489 24.4542 18.4282C24.179 18.0842 23.802 17.6132 23.5115 16.9087C23.466 16.7987 23.3235 16.5429 23.1585 16.2467C22.2637 14.6422 20.402 11.3034 21.598 9.59365C22.1515 8.8024 23.2537 8.4909 24.8777 8.66465C24.4 7.20915 22.125 2.65615 16.7267 2.56765C15.1032 2.54065 13.7717 3.0399 12.7712 4.05015C10.5312 6.3124 10.6122 10.4057 10.6135 10.4467C10.6149 10.499 10.6059 10.5511 10.5872 10.6C10.5684 10.649 10.5402 10.6937 10.5041 10.7317C10.4681 10.7697 10.4249 10.8002 10.377 10.8215C10.3292 10.8428 10.2776 10.8545 10.2252 10.8559C10.1729 10.8573 10.1208 10.8483 10.0718 10.8296C10.0229 10.8108 9.97821 10.7826 9.94021 10.7465C9.9022 10.7105 9.87168 10.6673 9.85036 10.6194C9.82905 10.5716 9.81737 10.52 9.81599 10.4677C9.81099 10.2859 9.72749 5.9904 12.2045 3.48865C13.3637 2.3179 14.8897 1.7399 16.74 1.77015C20.1935 1.8269 22.4165 3.58265 23.673 5.0454C25.0427 6.63965 25.7142 8.39815 25.7695 8.98515C25.8107 9.42165 25.4975 9.5089 25.4342 9.5219L25.2902 9.52515C23.6965 9.2699 22.674 9.44715 22.2512 10.0512C21.3415 11.3514 23.1027 14.5097 23.8547 15.8584C24.0467 16.2024 24.1852 16.4512 24.2487 16.6047C24.4957 17.2037 24.818 17.6062 25.0767 17.9297C25.3045 18.2142 25.5017 18.4609 25.5722 18.7504C25.605 18.8079 26.0697 19.4954 28.8275 18.9262C29.5187 18.7837 29.9332 18.9054 30.06 19.2887C30.3092 20.0424 28.9107 20.9217 28.1365 21.2812C27.4427 21.6037 26.3355 21.8077 25.3775 21.8077ZM24.2035 20.8024C24.291 20.8907 24.7287 21.0429 25.6352 21.0039C26.4412 20.9694 27.2912 20.7942 27.8012 20.5574C28.4535 20.2544 28.889 19.9157 29.1145 19.6844L28.9895 19.7074C27.2262 20.0714 25.979 20.0229 25.2825 19.5632C25.2357 19.5322 25.1906 19.4988 25.1475 19.4629C25.072 19.4927 25.0022 19.5122 24.9525 19.5262C24.5575 19.6369 24.149 19.7517 24.2035 20.8024ZM12.813 23.0312C12.375 23.0312 11.914 22.9714 11.4432 22.8537C10.9555 22.7317 10.1332 22.3644 10.1457 21.7612C10.16 21.0844 11.1442 20.8814 11.5147 20.8052C12.8532 20.5294 12.9405 20.4189 13.3587 19.8877C13.4807 19.7329 13.6325 19.5402 13.8395 19.3092C14.1467 18.9652 14.4825 18.7909 14.8375 18.7909C15.0847 18.7909 15.2875 18.8747 15.4215 18.9304C15.8485 19.1074 16.2047 19.5354 16.3512 20.0472C16.4835 20.5089 16.4202 20.9534 16.1737 21.2987C15.3645 22.4319 14.2022 23.0312 12.813 23.0312ZM11.0075 21.7954C11.1277 21.8884 11.3687 22.0127 11.637 22.0797C12.0447 22.1817 12.4402 22.2334 12.8132 22.2334C13.9497 22.2334 14.8622 21.7629 15.525 20.8349C15.6632 20.6414 15.6217 20.3957 15.5847 20.2664C15.5072 19.9957 15.3147 19.7494 15.1165 19.6672C15.009 19.6227 14.9197 19.5887 14.8377 19.5887C14.7937 19.5887 14.6597 19.5887 14.4342 19.8409C14.2786 20.0159 14.129 20.1962 13.9857 20.3814C13.4647 21.0429 13.226 21.2674 11.676 21.5867C11.2977 21.6642 11.1037 21.7432 11.0075 21.7954ZM14.0747 19.9554C13.9795 19.9552 13.8875 19.921 13.8153 19.859C13.7431 19.7969 13.6954 19.711 13.681 19.6169C13.6711 19.5507 13.6644 19.484 13.661 19.4172C12.645 19.3982 11.6647 18.9622 10.9205 18.1857C9.97949 17.2039 9.55124 15.8437 9.74574 14.4539C9.95699 12.9447 9.87799 11.6124 9.83549 10.8967C9.82374 10.6977 9.81524 10.5539 9.81574 10.4544C9.81649 10.3282 9.81899 9.9934 10.938 9.42615C11.336 9.2244 12.134 8.8724 13.0057 8.78215C14.45 8.6329 15.402 9.27615 15.687 10.5937C16.4562 14.1507 15.748 15.7239 15.2307 16.8729C15.1345 17.0869 15.0435 17.2889 14.9707 17.4847L14.9065 17.6572C14.6332 18.3899 14.397 19.0229 14.4695 19.4957C14.4775 19.5474 14.4751 19.6003 14.4627 19.6511C14.4502 19.702 14.4278 19.7499 14.3968 19.7922C14.3658 19.8344 14.3268 19.8701 14.282 19.8973C14.2372 19.9244 14.1875 19.9425 14.1357 19.9504L14.0747 19.9554ZM10.616 10.5649L10.6315 10.8497C10.6755 11.5932 10.7575 12.9767 10.5355 14.5647C10.3752 15.7109 10.7252 16.8297 11.4962 17.6337C12.1055 18.2692 12.9072 18.6199 13.7312 18.6199H13.7482C13.8405 18.2312 13.9937 17.8207 14.1587 17.3784L14.2225 17.2069C14.3047 16.9859 14.401 16.7719 14.503 16.5454C15.0007 15.4394 15.6205 14.0627 14.9067 10.7624C14.7655 10.1087 14.4227 9.7304 13.8595 9.60565C12.7025 9.35015 10.9782 10.2204 10.616 10.5649ZM13.0235 10.3957C13.0035 10.5367 13.2817 10.9132 13.6447 10.9634C14.007 11.0142 14.317 10.7197 14.3367 10.5787C14.3565 10.4377 14.0785 10.2822 13.7155 10.2317C13.3527 10.1812 13.0427 10.2547 13.0235 10.3957ZM13.728 11.1022L13.6262 11.0952C13.4012 11.0639 13.1737 10.9222 13.018 10.7157C12.9632 10.6432 12.874 10.5027 12.8917 10.3772C12.917 10.1932 13.1415 10.0829 13.4917 10.0829C13.57 10.0829 13.6515 10.0887 13.7335 10.1002C13.925 10.1267 14.1027 10.1819 14.234 10.2552C14.4615 10.3822 14.4782 10.5239 14.468 10.5972C14.44 10.8004 14.1167 11.1022 13.728 11.1022ZM13.1557 10.4192C13.167 10.5062 13.3825 10.7932 13.663 10.8319L13.7282 10.8364C13.9872 10.8364 14.1807 10.6327 14.2035 10.5659C14.1795 10.5204 14.013 10.4074 13.6972 10.3634C13.6293 10.3536 13.5607 10.3487 13.492 10.3487C13.289 10.3487 13.1812 10.3944 13.1557 10.4192ZM24.057 10.1079C24.0767 10.2489 23.7987 10.6254 23.436 10.6759C23.0735 10.7264 22.7632 10.4322 22.7432 10.2912C22.7242 10.1502 23.0022 9.9944 23.3647 9.94415C23.7272 9.8934 24.037 9.96715 24.057 10.1079ZM23.3522 10.7479C23.0032 10.7479 22.702 10.4764 22.6772 10.3002C22.6485 10.0887 22.9967 9.9279 23.3552 9.87815C23.4342 9.86715 23.5125 9.86165 23.5877 9.86165C23.8972 9.86165 24.1022 9.9524 24.1227 10.0989C24.136 10.1937 24.0632 10.3399 23.938 10.4719C23.8552 10.5587 23.6815 10.7089 23.4447 10.7417L23.3522 10.7479ZM23.588 9.99465C23.519 9.99465 23.447 9.9999 23.374 10.0099C23.0137 10.0602 22.7987 10.2047 22.8092 10.2822C22.8212 10.3674 23.0512 10.6152 23.3525 10.6152L23.4267 10.6099C23.6235 10.5827 23.7712 10.4542 23.8417 10.3802C23.9525 10.2639 23.9965 10.1544 23.9912 10.1172C23.9842 10.0677 23.8512 9.99465 23.588 9.99465ZM24.5792 18.2054C24.507 18.2054 24.436 18.1858 24.3741 18.1487C24.3121 18.1115 24.2614 18.0582 24.2274 17.9944C24.1934 17.9306 24.1773 17.8588 24.181 17.7866C24.1847 17.7145 24.2079 17.6446 24.2482 17.5847C25.0977 16.3159 24.9422 15.0222 24.792 13.7709C24.7277 13.2379 24.6617 12.6867 24.6787 12.1577C24.6962 11.6134 24.7655 11.1644 24.8322 10.7302C24.9115 10.2157 24.9865 9.72965 24.9555 9.15265C24.9527 9.10035 24.9602 9.04801 24.9776 8.99861C24.995 8.94921 25.0219 8.90373 25.0569 8.86475C25.0919 8.82577 25.1342 8.79407 25.1815 8.77144C25.2287 8.74882 25.2799 8.73573 25.3322 8.7329C25.3845 8.73008 25.4369 8.73758 25.4863 8.75499C25.5357 8.77239 25.5812 8.79936 25.6201 8.83434C25.6591 8.86933 25.6908 8.91165 25.7134 8.95888C25.7361 9.00612 25.7492 9.05735 25.752 9.10965C25.7875 9.76915 25.7027 10.3192 25.6207 10.8514C25.5575 11.2622 25.492 11.6869 25.4762 12.1832C25.461 12.6517 25.5207 13.1492 25.584 13.6757C25.744 15.0062 25.9252 16.5142 24.9112 18.0284C24.8747 18.0829 24.8253 18.1276 24.7674 18.1585C24.7095 18.1894 24.6449 18.2055 24.5792 18.2054Z" fill="white"/>
</g>
<defs>
<clipPath id="clip0_7_85">
<rect width="32" height="32" fill="white"/>
</clipPath>
</defs>
</svg>
