<svg width="32" height="32" viewBox="0 0 32 32" fill="none" xmlns="http://www.w3.org/2000/svg">
<path d="M16 18.8499C14.426 18.8499 13.15 17.5739 13.15 15.9999C13.15 14.4259 14.426 13.1499 16 13.1499C17.574 13.1499 18.85 14.4259 18.85 15.9999C18.85 17.5739 17.574 18.8499 16 18.8499Z" fill="#61DAFB"/>
<path d="M5.17499 11.2999C5.72499 11.0999 6.29999 10.8999 6.89999 10.7249C6.74999 10.1249 6.62499 9.5249 6.52499 8.9499C5.99999 5.6499 6.57499 3.3249 8.17499 2.4249C8.64999 2.1499 9.17499 2.0249 9.77499 2.0249C11.525 2.0249 13.75 3.3249 16 5.4999C18.25 3.3249 20.475 2.0249 22.225 2.0249C22.825 2.0249 23.35 2.1499 23.825 2.4249C25.425 3.3499 26 5.6749 25.475 8.9499C25.375 9.5249 25.25 10.1249 25.1 10.7249C25.7 10.8999 26.275 11.0749 26.825 11.2999C29.95 12.4999 31.65 14.1499 31.65 15.9999C31.65 17.8499 29.925 19.4999 26.825 20.6999C26.275 20.8999 25.7 21.0999 25.1 21.2749C25.25 21.8749 25.375 22.4749 25.475 23.0499C26 26.3499 25.425 28.6749 23.825 29.5749C23.35 29.8499 22.825 29.9749 22.225 29.9749C20.45 29.9749 18.225 28.6749 16 26.4999C13.75 28.6749 11.525 29.9749 9.77499 29.9749C9.17499 29.9749 8.64999 29.8499 8.17499 29.5749C6.57499 28.6499 5.99999 26.3249 6.52499 23.0499C6.62499 22.4749 6.74999 21.8749 6.89999 21.2749C6.29999 21.0999 5.72499 20.9249 5.17499 20.6999C2.04999 19.4999 0.349995 17.8499 0.349995 15.9999C0.349995 14.1499 2.04999 12.4999 5.17499 11.2999ZM8.87499 3.6749C7.84999 4.2749 7.49999 6.1249 7.92499 8.7499C7.99999 9.2749 8.12499 9.8249 8.27499 10.3999C9.57499 10.0999 10.95 9.8999 12.4 9.7749C13.25 8.5749 14.125 7.4999 15 6.5249C13.15 4.6999 11.275 3.4499 9.74999 3.4499C9.42499 3.4499 9.12499 3.5249 8.87499 3.6749ZM11.675 18.4999C12.125 19.2999 12.65 20.0999 13.2 20.8999C14.125 20.9749 15.05 20.9999 16 20.9999C16.975 20.9999 17.9 20.9749 18.8 20.8999C19.35 20.0999 19.85 19.2999 20.3 18.4999C20.775 17.6749 21.225 16.8249 21.625 15.9999C21.225 15.1749 20.775 14.3249 20.3 13.4999C19.85 12.6999 19.325 11.8999 18.775 11.0999C17.85 11.0249 16.925 10.9999 15.975 10.9999C15 10.9999 14.075 11.0249 13.175 11.0999C12.625 11.8999 12.125 12.6999 11.675 13.4999C11.2 14.3249 10.75 15.1749 10.35 15.9999C10.775 16.8249 11.2 17.6499 11.675 18.4999ZM9.59999 17.6749C9.22499 18.5499 8.92499 19.3999 8.64999 20.2499C9.49999 20.4499 10.4 20.5999 11.35 20.7249C11.05 20.2499 10.725 19.7499 10.45 19.2249C10.15 18.6999 9.87499 18.1749 9.59999 17.6749ZM16 24.4499C16.6 23.7999 17.175 23.0999 17.725 22.3749C17.15 22.3999 16.575 22.4249 16 22.4249C15.425 22.4249 14.85 22.3999 14.275 22.3749C14.825 23.0999 15.4 23.7999 16 24.4499ZM20.65 20.6999C21.6 20.5749 22.5 20.4249 23.35 20.2249C23.075 19.3999 22.775 18.5249 22.4 17.6499C22.125 18.1499 21.85 18.6749 21.55 19.1749C21.25 19.7249 20.95 20.1999 20.65 20.6999ZM22.4 14.3249C22.775 13.4499 23.075 12.5999 23.35 11.7499C22.5 11.5499 21.6 11.3999 20.65 11.2749C20.95 11.7499 21.275 12.2499 21.55 12.7749C21.85 13.2999 22.125 13.8249 22.4 14.3249ZM16 7.5499C15.4 8.1999 14.825 8.8999 14.275 9.6249C14.85 9.5999 15.425 9.5749 16 9.5749C16.575 9.5749 17.15 9.5999 17.725 9.6249C17.175 8.8999 16.6 8.1999 16 7.5499ZM10.45 12.7999L11.35 11.2999C10.4 11.4249 9.49999 11.5749 8.64999 11.7749C8.92499 12.5999 9.22499 13.4749 9.59999 14.3499C9.87499 13.8249 10.15 13.2999 10.45 12.7999ZM24.075 8.7499C24.5 6.1249 24.15 4.2749 23.125 3.6749C22.875 3.5249 22.575 3.4499 22.25 3.4499C20.75 3.4499 18.875 4.6749 17 6.5249C17.875 7.4749 18.75 8.5749 19.6 9.7749C21.05 9.8999 22.425 10.1249 23.725 10.3999C23.875 9.8249 23.975 9.2749 24.075 8.7499ZM30.25 15.9999C30.25 14.8249 28.825 13.5749 26.325 12.6499C25.825 12.4499 25.275 12.2749 24.725 12.1249C24.325 13.3749 23.825 14.6999 23.225 16.0249C23.825 17.3499 24.35 18.6499 24.725 19.8999C28.175 18.8999 30.25 17.3999 30.25 15.9999ZM23.125 28.3249C24.15 27.7249 24.5 25.8749 24.075 23.2499C24 22.7249 23.875 22.1749 23.725 21.5999C22.425 21.8999 21.05 22.0999 19.6 22.2249C18.75 23.4249 17.875 24.4999 17 25.4749C18.85 27.2999 20.725 28.5499 22.25 28.5499C22.575 28.5499 22.875 28.4749 23.125 28.3249ZM7.92499 23.2499C7.49999 25.8749 7.84999 27.7249 8.87499 28.3249C9.12499 28.4749 9.42499 28.5499 9.74999 28.5499C11.25 28.5499 13.125 27.3249 15 25.4749C14.125 24.5249 13.25 23.4249 12.4 22.2249C10.95 22.0999 9.57499 21.8749 8.27499 21.5999C8.12499 22.1749 8.02499 22.7249 7.92499 23.2499ZM5.67499 19.3499C6.17499 19.5499 6.72499 19.7249 7.27499 19.8749C7.67499 18.6249 8.17499 17.2999 8.77499 15.9749C8.17499 14.6499 7.64999 13.3499 7.27499 12.0999C3.82499 13.0999 1.74999 14.5999 1.74999 15.9999C1.74999 17.1749 3.19999 18.4249 5.67499 19.3499Z" fill="#61DAFB"/>
</svg>
