<svg width="32" height="32" viewBox="0 0 32 32" fill="none" xmlns="http://www.w3.org/2000/svg">
<path d="M6 6.29062C6 7.00288 6.55877 7.58125 7.24636 7.58125H17.5828C18.7606 7.58125 19.7309 7.9575 20.4937 8.71C21.2549 9.46337 21.6364 10.4311 21.6364 11.615C21.6364 12.7087 21.2549 13.6047 20.4929 14.303C19.7309 14.9855 18.7614 15.325 17.5828 15.325H13.0909C12.4016 15.325 11.8437 15.9025 11.8437 16.6156C11.8437 17.3287 12.4016 17.9062 13.0909 17.9062H18.0512L22.5197 25.328C22.7974 25.776 23.1864 26 23.6891 26C24.2437 26 24.6335 25.776 24.8585 25.328C25.0835 24.8616 25.04 24.369 24.7289 23.8493L20.7531 17.2343C21.8271 16.732 22.6761 15.997 23.2993 15.0293C23.9233 14.0431 24.2353 12.9056 24.2353 11.615C24.2353 10.306 23.9493 9.15887 23.3771 8.17275C22.8234 7.18663 22.0437 6.41575 21.0391 5.86013C20.0337 5.28612 18.8827 5 17.5828 5H7.2472C6.55877 5 6 5.5775 6 6.29062Z" fill="#282828"/>
</svg>
