<svg width="32" height="32" viewBox="0 0 32 32" fill="none" xmlns="http://www.w3.org/2000/svg">
<path d="M0 16V32H32V0H0V16ZM25.7869 14.72C26.5533 14.8979 27.2499 15.2987 27.7888 15.872C28.0855 16.1809 28.3434 16.5247 28.5568 16.896C28.5568 16.937 27.1744 17.8714 26.3322 18.3936C26.3014 18.4141 26.1786 18.281 26.0429 18.0787C25.8891 17.8134 25.6707 17.5914 25.4079 17.4334C25.1451 17.2753 24.8466 17.1865 24.5402 17.175C23.5699 17.1085 22.9453 17.6179 22.9504 18.455C22.9424 18.6635 22.9901 18.8702 23.0886 19.0541C23.3011 19.497 23.6979 19.7606 24.9421 20.2982C27.2333 21.2838 28.2138 21.9341 28.823 22.8582C29.504 23.8822 29.655 25.536 29.1942 26.7597C28.6822 28.0909 27.4278 28.9946 25.6538 29.2941C24.8435 29.3869 24.0248 29.3783 23.2166 29.2685C21.978 29.0643 20.8371 28.4696 19.9603 27.5712C19.6659 27.2461 19.0925 26.3987 19.1283 26.3373C19.2218 26.2679 19.3202 26.2054 19.4227 26.1504L20.608 25.495L21.527 24.9626L21.719 25.2467C22.0431 25.7102 22.4554 26.1052 22.9325 26.409C23.9565 26.9466 25.3542 26.8723 26.0454 26.2502C26.2775 26.0223 26.4223 25.7202 26.4546 25.3965C26.4868 25.0728 26.4046 24.748 26.2221 24.4787C25.9661 24.1229 25.4541 23.8234 24.023 23.1987C22.3718 22.487 21.6602 22.0467 21.0099 21.3453C20.604 20.8824 20.3043 20.3363 20.1318 19.7453C20.0032 19.0701 19.9842 18.3785 20.0755 17.6973C20.416 16.1024 21.6115 14.9888 23.3574 14.6586C24.166 14.5585 24.985 14.581 25.7869 14.7251V14.72ZM18.2758 16.0614V17.3722H14.121V29.207H11.1744V17.3696H7.00928V16.0896C6.99631 15.6482 7.00656 15.2064 7.04 14.7661C7.06048 14.743 9.6 14.743 12.672 14.743H18.2605L18.2758 16.0614Z" fill="#007ACC"/>
</svg>
